<?xml version="1.0" encoding="UTF-8" standalone="no"?>
<svg width="416px" height="151px" viewBox="0 0 416 151" version="1.1" xmlns="http://www.w3.org/2000/svg" xmlns:xlink="http://www.w3.org/1999/xlink">
    <!-- Generator: Sketch 39.1 (31720) - http://www.bohemiancoding.com/sketch -->
    <title>code starter - watson language</title>
    <desc>Created with Sketch.</desc>
    <defs>
        <rect id="path-1" x="0" y="0" width="416" height="151"></rect>
        <rect id="path-3" x="0" y="0" width="116" height="113"></rect>
        <polygon id="path-5" points="0 226.79021 116 226.79021 116 0 0 0"></polygon>
        <rect id="path-7" x="0" y="0" width="116" height="113"></rect>
        <polygon id="path-9" points="0 226.79021 116 226.79021 116 0 0 0"></polygon>
        <rect id="path-11" x="0" y="0" width="147" height="143"></rect>
        <polygon id="path-13" points="0 287 147 287 147 0 0 0"></polygon>
        <polygon id="path-15" points="0 24.6303 18.069 24.6303 18.069 0.0003 0 0.0003"></polygon>
        <polygon id="path-17" points="7.396 12.9722483 7.396 0.0003 0.2319 0.0003 0.2319 12.9722483"></polygon>
        <polygon id="path-19" points="9.55443651 23.18409 19.1085714 23.18409 19.1085714 9e-05 9.55443651 9e-05 0.000301587302 9e-05 0.000301587302 23.18409 9.55443651 23.18409"></polygon>
    </defs>
    <g id="Mobile-Category-Tabs" stroke="none" stroke-width="1" fill="none" fill-rule="evenodd">
        <g id="Getting-Started-light" transform="translate(-509.000000, -598.000000)">
            <g id="code-starter---watson-language" transform="translate(509.000000, 598.000000)">
                <g id="Group-7">
                    <g id="Page-1">
                        <mask id="mask-2" fill="white">
                            <use xlink:href="#path-1"></use>
                        </mask>
                        <use id="Mask" fill="#C0E6FF" xlink:href="#path-1"></use>
                    </g>
                </g>
                <g id="Group-9-Copy-7" transform="translate(79.000000, 38.000000)">
                    <mask id="mask-4" fill="white">
                        <use xlink:href="#path-3"></use>
                    </mask>
                    <g id="Mask"></g>
                    <g id="Group-9-Copy-4" mask="url(#mask-4)">
                        <g id="Group-6">
                            <g id="Page-1">
                                <path d="M114.90566,212.478206 C114.90566,219.775126 109.026868,225.689286 101.773585,225.689286 L16.4150943,225.689286 C9.16181132,225.689286 3.28301887,219.775126 3.28301887,212.478206 L3.28301887,20.9175436 C3.28301887,13.6206237 9.16181132,7.70646344 16.4150943,7.70646344 L101.773585,7.70646344 C109.026868,7.70646344 114.90566,13.6206237 114.90566,20.9175436 L114.90566,212.478206 L114.90566,212.478206 Z" id="Stroke-1" stroke="#264A60" fill="#FFFFFF"></path>
                                <mask id="mask-6" fill="white">
                                    <use xlink:href="#path-5"></use>
                                </mask>
                                <g id="Clip-4"></g>
                                <polygon id="Stroke-3" stroke="#264A60" fill="#BA8FF7" mask="url(#mask-6)" points="3.28301887 199.267126 114.90566 199.267126 114.90566 31.9267771 3.28301887 31.9267771"></polygon>
                                <path d="M72.2264151,20.9175436 C72.2264151,21.5252533 71.7361509,22.018467 71.1320755,22.018467 L49.245283,22.018467 C48.6412075,22.018467 48.1509434,21.5252533 48.1509434,20.9175436 C48.1509434,20.3098339 48.6412075,19.8166203 49.245283,19.8166203 L71.1320755,19.8166203 C71.7361509,19.8166203 72.2264151,20.3098339 72.2264151,20.9175436" id="Fill-6" fill="#264A60" mask="url(#mask-6)"></path>
                            </g>
                        </g>
                    </g>
                </g>
                <g id="Group-9-Copy-8" transform="translate(223.000000, 38.000000)">
                    <mask id="mask-8" fill="white">
                        <use xlink:href="#path-7"></use>
                    </mask>
                    <g id="Mask"></g>
                    <g id="Group-9-Copy-4" mask="url(#mask-8)">
                        <g id="Group-6">
                            <g id="Page-1">
                                <path d="M114.90566,212.478206 C114.90566,219.775126 109.026868,225.689286 101.773585,225.689286 L16.4150943,225.689286 C9.16181132,225.689286 3.28301887,219.775126 3.28301887,212.478206 L3.28301887,20.9175436 C3.28301887,13.6206237 9.16181132,7.70646344 16.4150943,7.70646344 L101.773585,7.70646344 C109.026868,7.70646344 114.90566,13.6206237 114.90566,20.9175436 L114.90566,212.478206 L114.90566,212.478206 Z" id="Stroke-1" stroke="#264A60" fill="#FFFFFF"></path>
                                <mask id="mask-10" fill="white">
                                    <use xlink:href="#path-9"></use>
                                </mask>
                                <g id="Clip-4"></g>
                                <polygon id="Stroke-3" stroke="#264A60" fill="#BA8FF7" mask="url(#mask-10)" points="3.28301887 199.267126 114.90566 199.267126 114.90566 31.9267771 3.28301887 31.9267771"></polygon>
                                <path d="M72.2264151,20.9175436 C72.2264151,21.5252533 71.7361509,22.018467 71.1320755,22.018467 L49.245283,22.018467 C48.6412075,22.018467 48.1509434,21.5252533 48.1509434,20.9175436 C48.1509434,20.3098339 48.6412075,19.8166203 49.245283,19.8166203 L71.1320755,19.8166203 C71.7361509,19.8166203 72.2264151,20.3098339 72.2264151,20.9175436" id="Fill-6" fill="#264A60" mask="url(#mask-10)"></path>
                            </g>
                        </g>
                    </g>
                </g>
                <g id="Group-9" transform="translate(135.000000, 8.000000)">
                    <g id="Group-9-Copy-5">
                        <mask id="mask-12" fill="white">
                            <use xlink:href="#path-11"></use>
                        </mask>
                        <g id="Mask"></g>
                        <g id="Group-9-Copy-4" mask="url(#mask-12)">
                            <g id="Group-6">
                                <g id="Page-1">
                                    <path d="M145.613208,268.88835 C145.613208,278.122505 138.163358,285.606796 128.971698,285.606796 L20.8018868,285.606796 C11.6102264,285.606796 4.16037736,278.122505 4.16037736,268.88835 L4.16037736,26.4708738 C4.16037736,17.2367184 11.6102264,9.75242718 20.8018868,9.75242718 L128.971698,9.75242718 C138.163358,9.75242718 145.613208,17.2367184 145.613208,26.4708738 L145.613208,268.88835 L145.613208,268.88835 Z" id="Stroke-1" stroke="#264A60" fill="#FFFFFF"></path>
                                    <mask id="mask-14" fill="white">
                                        <use xlink:href="#path-13"></use>
                                    </mask>
                                    <g id="Clip-4"></g>
                                    <polygon id="Stroke-3" stroke="#264A60" fill="#FFFFFF" mask="url(#mask-14)" points="4.16037736 252.169903 145.613208 252.169903 145.613208 40.4029126 4.16037736 40.4029126"></polygon>
                                    <path d="M91.5283019,26.4708738 C91.5283019,27.2399223 90.9070189,27.8640777 90.1415094,27.8640777 L62.4056604,27.8640777 C61.6401509,27.8640777 61.0188679,27.2399223 61.0188679,26.4708738 C61.0188679,25.7018252 61.6401509,25.0776699 62.4056604,25.0776699 L90.1415094,25.0776699 C90.9070189,25.0776699 91.5283019,25.7018252 91.5283019,26.4708738" id="Fill-6" fill="#264A60" mask="url(#mask-14)"></path>
                                </g>
                            </g>
                        </g>
                    </g>
                </g>
                <g id="Page-1" transform="translate(300.000000, 100.000000)">
                    <mask id="mask-16" fill="white">
                        <use xlink:href="#path-15"></use>
                    </mask>
                    <g id="Clip-2"></g>
                    <path d="M14.22,4.0477 C13.387,3.2537 12.659,2.6057 11.839,1.9317 C12.368,1.2037 12.937,0.5287 13.453,-0.0003 C14.286,0.6477 14.974,1.3227 15.768,2.1827 C15.199,2.9897 14.789,3.5187 14.22,4.0477 L14.22,4.0477 Z M12.791,9.8947 C11.627,9.8947 10.305,10.8067 10.305,11.8127 C10.305,12.6727 11.442,13.6907 14.313,13.6907 C15.04,13.6907 15.635,13.6647 16.151,13.5717 C15.463,11.2307 14.299,9.8947 12.791,9.8947 L12.791,9.8947 Z M10.291,4.3127 C9.458,3.5187 8.717,2.8707 7.91,2.1957 C8.439,1.4687 9.008,0.7937 9.524,0.2647 C10.357,0.9127 11.045,1.5877 11.839,2.4467 C11.27,3.2537 10.86,3.7827 10.291,4.3127 L10.291,4.3127 Z M14.194,16.3097 C12.686,16.3097 11.389,16.0457 10.49,15.4367 C9.352,14.6437 9.061,13.5847 9.061,12.0767 C9.061,11.3497 9.392,10.4497 9.789,9.7097 C10.503,8.4127 11.786,7.2487 13.122,7.2487 C14.776,7.2487 16.098,8.5317 17.157,11.1507 C17.54,12.3147 18.069,14.3917 18.069,16.0987 C18.069,17.1567 17.99,18.1357 17.739,19.0087 C17.633,19.6827 16.905,20.5957 16.231,21.2047 C14.233,22.9767 11.178,24.6307 7.699,24.6307 C3.691,24.6307 0,21.9057 0,16.9317 C0,14.8547 0.463,12.7647 1.217,11.1907 L2.077,11.4157 C1.667,12.6197 1.389,13.7567 1.389,14.7887 C1.389,19.0617 4.035,21.6937 7.765,21.6937 C9.656,21.6937 12.037,21.2307 14.299,19.7357 C15.543,18.9027 16.799,17.8447 16.799,17.2757 C16.799,16.8917 16.68,16.4817 16.508,16.0987 C15.86,16.2177 15.067,16.3097 14.194,16.3097 L14.194,16.3097 Z" id="Fill-1" fill="#FFFFFF" mask="url(#mask-16)"></path>
                </g>
                <g id="Page-1" transform="translate(179.000000, 72.000000)">
                    <path d="M32.5,0 C50.44923,0 65,14.55077 65,32.5 C65,50.44923 50.44923,65 32.5,65 C14.55077,65 0,50.44923 0,32.5 C0,14.55077 14.55077,0 32.5,0" id="Fill-1" fill="#AF6EE8"></path>
                    <polygon id="Fill-3" fill="#734098" points="28.3075 35.308 9.9385 35.308 9.9385 12.792 23.569 12.792 28.3075 17.5305"></polygon>
                    <path d="M12.662,28.0995 L24.401,28.0995 L24.401,30.199 L12.662,30.199 L12.662,28.0995 Z M12.662,23.9005 L22.308,23.9005 L22.308,26 L12.662,26 L12.662,23.9005 Z M12.662,21.8075 L25.662,21.8075 L25.662,19.708 L12.662,19.708 L12.662,21.8075 Z" id="Fill-5" fill="#FFFFFF"></path>
                    <polygon id="Fill-7" fill="#562F72" points="28.3075 17.5695 23.569 17.5695 23.569 12.792"></polygon>
                    <path d="M59.5465,33.3775 C59.5465,37.3165 58.162,40.924 55.939,43.8165 C54.054,46.293 47.424,54.847 42.8155,59.332 L42.8155,50.6155 L42.2305,50.6155 C32.708,50.6155 25.038,42.9 25.038,33.3775 C25.038,23.855 32.7535,16.1395 42.276,16.1395 C51.792,16.146 59.5465,23.9005 59.5465,33.3775 L59.5465,33.3775 Z" id="Fill-9" fill="#FFFFFF"></path>
                    <path d="M50.323,30.992 C51.41071,30.992 52.2925,31.87379 52.2925,32.9615 C52.2925,34.04921 51.41071,34.931 50.323,34.931 C49.23529,34.931 48.3535,34.04921 48.3535,32.9615 C48.3535,31.87379 49.23529,30.992 50.323,30.992" id="Fill-11" fill="#734098"></path>
                    <path d="M42.3995,30.992 C43.48721,30.992 44.369,31.87379 44.369,32.9615 C44.369,34.04921 43.48721,34.931 42.3995,34.931 C41.31179,34.931 40.43,34.04921 40.43,32.9615 C40.43,31.87379 41.31179,30.992 42.3995,30.992" id="Fill-13" fill="#734098"></path>
                    <path d="M34.515,30.992 C35.60271,30.992 36.4845,31.87379 36.4845,32.9615 C36.4845,34.04921 35.60271,34.931 34.515,34.931 C33.42729,34.931 32.5455,34.04921 32.5455,32.9615 C32.5455,31.87379 33.42729,30.992 34.515,30.992" id="Fill-15" fill="#734098"></path>
                    <polygon id="Fill-17" fill="#FFFFFF" points="27.5535 57.2845 25.961 55.939 28.808 52.585 25.454 49.738 26.7995 48.139 31.746 52.338"></polygon>
                    <path d="M27.677,54.0995 C26.2535,54.0995 24.8235,53.8915 23.439,53.5145 C18.993,52.2535 15.3465,49.114 13.4615,44.876 C12.7075,43.199 12.285,41.3985 12.1615,39.507 L14.677,39.338 C14.7615,40.8915 15.1385,42.3995 15.769,43.823 C17.3615,47.385 20.384,50.0305 24.115,51.077 C25.5385,51.4995 26.9685,51.623 28.4765,51.5385 L28.6455,54.054 C28.3075,54.0995 28.015,54.0995 27.677,54.0995 L27.677,54.0995 Z" id="Fill-19" fill="#FFFFFF"></path>
                </g>
                <g id="Page-1" transform="translate(102.000000, 100.000000)">
                    <mask id="mask-18" fill="white">
                        <use xlink:href="#path-17"></use>
                    </mask>
                    <g id="Clip-1"></g>
                </g>
                <g id="Page-1" transform="translate(101.000000, 97.000000)">
                    <mask id="mask-20" fill="white">
                        <use xlink:href="#path-19"></use>
                    </mask>
                    <g id="Clip-2"></g>
                    <path d="M15.8879206,23.18409 L15.7431587,23.00409 C15.8879206,22.35609 15.9603016,21.73209 15.9603016,21.13209 C15.9603016,18.70509 14.1387143,16.23309 10.4985556,13.71309 L5.50728571,10.32309 C5.31426984,10.13109 5.04887302,10.03509 4.70807937,10.03509 C4.46680952,10.03509 4.28585714,10.09509 4.16522222,10.21509 C3.85157143,10.55409 3.57411111,10.98609 3.3298254,11.51109 C3.16093651,12.01809 3.07649206,12.46209 3.07649206,12.84609 C3.07649206,13.49409 3.25744444,14.07009 3.61934921,14.57409 L5.06696825,16.12209 L6.3698254,17.31309 C7.02125397,17.96109 7.34696825,18.66909 7.34696825,19.43709 C7.34696825,20.78409 6.63522222,21.68409 5.21173016,22.14009 C4.19839683,22.42809 3.3298254,22.57209 2.60601587,22.57209 C1.23077778,22.57209 0.362206349,22.27209 0.000301587302,21.67209 C1.20665079,21.45609 1.8098254,20.96409 1.8098254,20.19609 C1.8098254,19.83609 1.74950794,19.47609 1.62887302,19.11609 L1.0498254,18.00009 C0.54315873,17.01609 0.289825397,16.05609 0.289825397,15.12009 C0.289825397,14.40009 0.60347619,13.56009 1.23077778,12.60009 C1.85807937,11.64009 2.79903175,10.57209 4.05363492,9.39609 C1.4961746,7.98009 0.217444444,6.19209 0.217444444,4.03209 C0.217444444,3.52809 0.410460317,2.90409 0.796492063,2.16009 C1.18252381,1.41609 1.68919048,0.80709 2.31649206,0.32409 C2.60601587,0.10809 2.89553968,9e-05 3.18506349,9e-05 C3.45046032,9e-05 3.61934921,0.07209 3.69173016,0.21609 L3.69173016,0.36009 C3.66760317,0.45609 3.64950794,0.56409 3.63744444,0.68409 C3.62538095,0.80709 3.58315873,0.94809 3.51077778,1.11609 L3.36601587,2.01609 L3.40220635,2.41209 C3.69173016,3.44409 4.88601587,4.70409 6.98506349,6.19209 L12.1964921,9.68409 L12.7393492,9.90009 C13.2218889,9.90009 13.6561746,8.88009 14.0422063,6.84009 C12.7876032,5.95209 12.1603016,5.00409 12.1603016,3.99609 C12.1603016,2.96409 12.4076032,2.09409 12.9022063,1.38609 C13.3968095,0.68109 13.9456984,0.32409 14.548873,0.32409 C14.6936349,0.85209 14.8383968,1.27209 14.9831587,1.58409 C15.1279206,1.80009 15.3933175,2.02809 15.7793492,2.26809 L17.661254,3.56409 C18.2161746,3.97209 18.5961746,4.35609 18.801254,4.71609 C19.0063333,5.07609 19.108873,5.58009 19.108873,6.22809 C19.108873,6.85209 18.7952222,7.47609 18.1679206,8.10009 C17.7577619,8.58009 17.3596667,8.82009 16.9736349,8.82009 C16.828873,8.82009 16.6599841,8.74809 16.4669683,8.60409 C16.2498254,8.00409 15.9603016,7.70409 15.5983968,7.70409 C15.4295079,7.70409 15.284746,7.75809 15.1641111,7.86609 C15.0434762,7.97409 14.9107778,8.17209 14.7660159,8.46009 L13.3907778,10.47609 C15.0314127,11.50809 16.2860159,12.64209 17.1545873,13.87809 C18.0231587,15.11709 18.4574444,16.36809 18.4574444,17.64009 C18.4574444,18.57609 18.2463333,19.51809 17.8241111,20.46609 C17.4018889,21.41409 16.7564921,22.32009 15.8879206,23.18409" id="Fill-1" fill="#FFFFFF" mask="url(#mask-20)"></path>
                </g>
            </g>
        </g>
    </g>
</svg>